<svg class="logo__svg" xmlns="http://www.w3.org/2000/svg" viewBox="0 0 903.56 673.03"><defs>
<style>.a{fill:#1a1a1a;}.b{font-size:125px;font-family:CinzelDecorative-Regular, Cinzel Decorative;}.c{letter-spacing:-0.01em;}.d{letter-spacing:-0.02em;}.e{letter-spacing:-0.06em;}</style></defs><title>3</title>
<path d="M73.53,227.93a121.83,121.83,0,0,0-27.26,18.72c-.06,3.34-.11,6.7-.13,10.07A250,250,0,0,1,73.53,227.93Z" transform="translate(-1.78 -1.61)"/>
<path d="M207.23,276c-5.15,58.09-51.66,118.81-112.48,122.31-23.48,1.35-48.44-2-49.55-21.31a18.14,18.14,0,0,1,17-19.1c11.43-.66,11.78,5.36,30.44,4.29,41.54-2.39,81.38-55.42,78.74-101.17-1.21-21.07-10.76-29.58-31.83-28.37-23.48,1.35-73.5,45.3-93.17,91.73a18.89,18.89,0,0,1-15.67,11.17,18.55,18.55,0,0,1-19.1-17q-.56-9.74-.89-19.35c-8.5,22.42-9.42,42.11-8.83,51.5,2.2,35.21,21.38,78,58.93,94.28,51.36,22.28,119.57-12.56,144-68.49C219.88,342.13,219.69,305.53,207.23,276Z" transform="translate(-1.78 -1.61)"/>
<path d="M157.38,224.21c23.11,10.1,40.18,28.81,49.85,51.76a117.38,117.38,0,0,0,.31-17.06c-2.26-39.13-30.91-64.66-70-62.41-22.15,1.27-44.2,13.91-64,31.43C100.09,214.66,130.25,212.35,157.38,224.21Z" transform="translate(-1.78 -1.61)"/>
<path d="M46.27,246.65C47.88,157,62.46,76.89,78.1,24.75A21.47,21.47,0,0,0,79,18.66a18,18,0,0,0-35.26-4C24.05,81,6.54,184.09,10.75,299.15c.8-2.13,1.66-4.28,2.61-6.46A134.88,134.88,0,0,1,46.27,246.65Z" transform="translate(-1.78 -1.61)"/>
<path class="a" d="M330.44,287.31a18,18,0,1,0-35.72-3.9c-4.16,38.14-2.69,78.56-.45,118.47l36-4.62C328.25,358.79,326.76,321.08,330.44,287.31Z" transform="translate(-1.78 -1.61)"/>
<path class="a" d="M417.19,414.24a18.72,18.72,0,0,0,9.36-14c1.11-10.13-7-18.84-15.91-19.81-3.57-.39-7.21-.19-10.44,1.87-12.78,6.76-27.35,16.09-42.61,27l21.68,28.44A424.38,424.38,0,0,1,417.19,414.24Z" transform="translate(-1.78 -1.61)"/>
<path class="a" d="M310.75,238a5.09,5.09,0,0,0,6.79,0c6.12-6.11,17.6-19.18,21.24-23.36a1.81,1.81,0,0,0-.1-2.56l-16.22-16.32a3,3,0,0,0-4.16.05c-4.91,5.28-17.45,18.47-22.15,23.49a3,3,0,0,0,0,4.3C299.52,227.19,306.62,234.07,310.75,238Z" transform="translate(-1.78 -1.61)"/>
<path class="a" d="M357.59,409.24l-9.22-12.09a4.39,4.39,0,0,0-4.06-1.69l-14.05,1.8c.54,10.36,1.12,20.76,1.65,31.17C340.56,421.67,349.18,415.22,357.59,409.24Z" transform="translate(-1.78 -1.61)"/>
<path class="a" d="M376.27,439.76c-7,4.89-14.21,10.14-21.36,15.64a1.56,1.56,0,0,0,.17,2.59l33,19.05a3.84,3.84,0,0,1,1.91,3.31V591.66a3.82,3.82,0,0,1-1.91,3.31l-96.4,55.66a3.83,3.83,0,0,1-3.82,0l-2.2-1.27c-13,10.25-28.08,15.54-44.43,13.75-31.55-3.44-44.38-35-41.78-58.78.16-1.47.37-2.94.59-4.41L191.46,595a3.82,3.82,0,0,1-1.91-3.31V480.35a3.84,3.84,0,0,1,1.91-3.31l96.4-55.65a3.83,3.83,0,0,1,3.82,0l1.2.69a1.66,1.66,0,0,0,2.49-1.53q-.44-7.28-.86-14.57a3.83,3.83,0,0,0-4.3-3.58l-91.56,11.76a3.85,3.85,0,0,0-3,2.32l-56.75,135.8a3.82,3.82,0,0,0,.48,3.8l89.23,117a3.84,3.84,0,0,0,3.53,1.48l146-18.75a3.82,3.82,0,0,0,3-2.32l56.76-135.8a3.83,3.83,0,0,0-.49-3.8l-55.92-73.35A3.8,3.8,0,0,0,376.27,439.76Z" transform="translate(-1.78 -1.61)"/>
<path class="a" d="M297.16,457.45c-43.91,39.52-89,90.69-97,141.92a.83.83,0,0,0,.41.84l36,20.78a.43.43,0,0,0,.61-.57,21.5,21.5,0,0,1-2-12.19C238.31,579.48,262.89,542,296.71,507a.83.83,0,0,1,1.42.61c-.41,14.24-.81,27.94-2.23,41-5.65,51.74-33,75.89-47.18,78.58a.42.42,0,0,0-.12.78l36.57,21.11a.81.81,0,0,0,.92-.06c24.18-19.35,41.1-56,45.53-96.52,2.78-25.47,2.87-53.62,2.1-79.51a.84.84,0,0,1,.28-.63c5.91-5.07,12-10,18.11-14.78a.82.82,0,0,0-.1-1.35l-55.14-31.84a.82.82,0,0,0-1.23.76c.64,10.65,1.26,21.24,1.78,31.68A.76.76,0,0,1,297.16,457.45Z" transform="translate(-1.78 -1.61)"/>
<text class="b" transform="translate(86.41 165.9)">BeaDIng</text><text class="b" transform="translate(368.06 339.71)">Jew<tspan class="c" x="237.25" y="0">e</tspan>
<tspan class="d" x="308.12" y="0">l</tspan><tspan class="e" x="376.5" y="0">r</tspan><tspan x="453.12" y="0">Y</tspan></text></svg>
