<svg version="1" xmlns="http://www.w3.org/2000/svg" width="1020" height="1020" viewBox="0 0 765.000000 765.000000"><path d="M250 8.6c-8.4 3.6-11.1 8.5-23.2 41.9-10.4 28.7-27.5 84.6-31.2 102.5-.3 1.4-1.2 5.2-2 8.5-2.2 9.3-5.8 24.9-6 26.2-.1.7-7.7 8.8-16.8 18-16.6 16.9-19.3 20.5-21.6 29.8-.7 2.6-1 64.1-.9 178l.2 174 3.1 6.5c1.9 3.9 5.4 8.7 8.8 12.1 3.1 3.1 5.6 5.9 5.6 6.3 0 .3-2.3 3.4-5.1 6.8-8.2 10.2-16.1 25.3-17.5 33.7-.3 1.4-.9 4-1.3 5.6-1.5 5.6-1.3 21.9.4 29.1 3.3 14.4 11.9 27.3 24 35.9 19.1 13.6 40.9 17.7 69.5 12.9 6-1 23.3-7 31.1-10.8 4.1-2 7.9-3.6 8.4-3.6.6 0 7.8 6.8 16 15.1 15.9 15.9 20.2 19.5 27.5 22.3 10.7 4.2 26.7 1.8 35-5.4 1.4-1.2 36.7-36.2 78.4-77.8 89.9-89.6 81.9-79.3 82.4-105.9l.4-17.1h19.6c21.7.1 23.8-.3 30.5-6.1 13.3-11.8 9.5-34-7.2-41.4-4-1.8-6.9-2.1-23.6-2.2l-19-.2-.5-65.9-.5-65.9-4.5 7.3c-12 19.5-10.9 17.6-22.7 38.2-4.9 8.5-10.7 18.9-12.8 23-2.2 4.1-4.2 7.7-4.5 8-.3.3-1.5 2.5-2.7 5-1.2 2.5-4.3 8.3-6.8 13-2.6 4.7-7.8 14.6-11.7 22-3.9 7.4-8.2 15.5-9.5 17.9l-2.4 4.3 6.3-.6c3.5-.4 7.7-.9 9.3-1.1 11.7-1.6 38.2-3.6 50-3.8l12-.2.1 24.3c.1 17.5-.1 24.2-1 24.2-8.9.2-34.6 1.6-43.6 2.5-2.5.2-7.4.7-11 1-3.6.3-8.1.8-10 1-3.3.4-7 .9-16.5 2.1-2.2.2-5.1.7-6.5.9-1.4.2-4.5.7-7 1-5.8.8-10.4 1.6-10.6 1.8-.1.1-5.4 9.2-11.9 20.2-29.6 50.5-50.4 79.4-72.7 101-15 14.6-28.2 24.9-42.1 33.1l-5.8 3.4-18.9-18.8-18.8-18.8 10.7-5.1c10.5-5 23.5-13.2 30.2-19 13.9-12 25.2-24.3 35.6-38.8 7.1-10 20.3-29.5 20.3-30.1 0-.3 1.8-3.2 4.1-6.5 2.2-3.3 3.9-6.2 3.7-6.5-1.4-1.3-46.3 13.5-65.8 21.8-30.1 12.8-54.1 27.5-70.9 43.7l-4.4 4.2-17.4-17.3-17.4-17.3 6.4-6c9.7-9.2 12.5-11.5 22.2-18.6 34.7-25.1 83.1-45.1 147.5-60.8 6.9-1.6 13.6-3.2 15-3.5 4.7-.8 18.5-3.8 18.6-3.9.3-.3 16.4-31.1 28.4-54.2 29.3-56.3 50-92.6 70.3-123 12.5-18.7 20.3-29.2 24.1-32.7 3.2-3 11.8-6.3 14-5.5 1 .4 1.3 6.9 1.2 32.7-.1 17.7.2 32.6.5 33.1.3.6 2.5-2 4.8-5.6 2.3-3.6 6.9-10.1 10.1-14.4 7.8-10.5 9.2-13.4 9.5-20 .8-13.4-8.9-25.3-21.3-26.3l-3.2-.2v-31.8-32.3c-.4-3.1-3.8-12-6-15.5-2.9-4.4-149.8-151.5-156.2-156.3-11-8.2-29-8.7-40.7-1.2-2 1.2-17.8 16.4-35.2 33.7l-31.6 31.3 2.4-9c4.1-15 18.7-58 25.3-74.5 6.7-16.7 7.5-21.5 4.6-28.4-4.2-10.1-17.4-15.4-27.6-11zm-8.1 133.5c-1.1 4.1-2.2 8.1-2.4 8.9-.2.8-2.1 8.7-4.3 17.5-2.2 8.9-4.3 17.7-4.6 19.6-.3 2-.8 4.2-1 5-.3.8-.7 2.5-1 3.9-.2 1.4-1.5 8.1-3 15-1.4 6.9-2.8 14.1-3.1 16-.3 1.9-.8 4.2-1 5-.2.8-.7 3.5-1 6-.3 2.5-.8 5.2-1 6-.2.8-.7 3.5-1 6-.3 2.5-.8 5.2-1 6-.2.8-.6 3.7-1 6.5-.3 2.7-.8 5.7-1 6.5-.2.8-.6 4.2-1 7.5-.3 3.3-.8 6.7-1 7.5-.2.8-.7 4.6-1 8.5-.4 3.8-.9 7.3-1.1 7.7-1.4 2.3 1.6.1 8-5.9 15.9-14.8 35.2-28.8 51-37.1 7.3-3.9 21.6-9.8 26.1-10.9 2.3-.5 9.6-2.1 14-2.9 3.7-.8 17.5-.6 23 .2 3.5.5 6.1 1 13.5 2.8 4.4 1.1 14.6 5.9 19.7 9.3 20.9 13.8 32.4 36.7 32.4 64.3 0 8.1-.6 12.9-3.5 29.6-.2 1.1-2 7-4 13-18.5 55.4-66.7 100.1-116.2 108-2 .3-4.6.8-5.8 1-2.5.6-26.2.5-29.1 0-1.1-.2-4-.7-6.5-1.1-7.2-1.2-8-1.3-13.9-3.1-22.1-6.4-30.8-23.4-19.5-38.2 6.3-8.1 18.4-9.9 29.9-4.2 6.6 3.3 11.8 4.3 23 4.6 9.9.3 13.3 0 19.5-1.7 38.1-10.8 72.8-49.1 82-90.7 2.4-10.8 2.4-26.2.2-33.4-3.8-12-16.7-19.3-33.7-18.9-19.5.4-53 20.6-81.6 49.1-7.4 7.4-14.8 15-16.4 16.9-4.9 5.9-15 20.4-18.4 26.3-3.5 6.3-7.5 10.1-12.8 12.3-10.2 4.3-22.3-1.2-26.8-11.9-1.4-3.3-1.6-6.2-1-17.5.3-7.5.8-15.9 1.1-18.6 1.2-13 1.4-15.6 2-23.5.3-4.7.8-9.3 1-10.3.2-1 .6-4.6.9-8 .3-3.4.8-7.3 1-8.7.2-1.4.7-4.9.9-7.7.3-2.9.8-6.5 1-8 .5-3 1.1-6.9 2.1-14.3 1-7.5 2.2-14.3 6-36.5.3-1.7 1.9-10.2 3.6-19l3.1-16 28.1-28.2c15.5-15.5 28.2-28.1 28.4-27.9.1.1-.7 3.6-1.8 7.7zm-22 523.3l17.4 17.4-4 1.1c-20.9 5.6-36.9 3.8-40.9-4.8-2.2-4.5-2.1-12.3.1-17.5 1.9-4.5 8.2-13.5 9.5-13.6.3 0 8.4 7.8 17.9 17.4zM596.8 195c-10.3 3.1-24.6 15-29.2 24.1-7.5 15.2 2.2 34 17.6 33.9 10.6-.1 28.1-11.5 35.3-23 2.5-4 4.5-11.2 4-14.3-.2-1.2-.6-3.4-.9-4.8-1-6.1-6.6-13.2-12.2-15.5-3.6-1.5-10.3-1.7-14.6-.4z"/></svg>