<svg width="24" height="24" viewBox="0 0 24 24" fill="none" xmlns="http://www.w3.org/2000/svg">
<circle cx="12" cy="12" r="12" fill="#656565"/>
<path d="M20 15.0938H19.1016C17.8516 18.0234 17.7344 19 15.2734 19H11.7578C10.5859 19 10.0391 18.5312 10.0391 17.5156V12.0859C12.6172 12.0859 13.4766 12.1641 13.4766 12.1641C14.6484 12.1641 14.6484 12.9844 15.0391 14.5469H16.0156C15.9375 10.7188 15.9375 12.2812 16.0938 8.29688H15.0781C14.5703 10.5234 14.6484 10.8359 13.5156 10.8359C13.5156 10.8359 12.3047 10.9531 10.0391 10.9531V4.54688C10.0391 4.3125 10.0781 4.15625 10.4688 4.15625H15.8203C17.2266 4.15625 17.5 6.03125 17.9688 7.71094H18.8672C18.8672 7.71094 19.0234 4.27344 19.1406 2.75C14.9609 3.25781 7.85156 3.02344 5 2.90625V3.92188C6.875 4.27344 7.30469 4.19531 7.38281 5.32812C7.5 8.375 7.42188 15.0547 7.38281 17.9062C7.34375 18.9609 6.75781 18.9219 5 19.2734V20.25C10.7812 20.0938 14.7656 20.0938 19.375 20.25C19.4531 19.3906 19.9219 15.5234 20 15.0938Z" fill="white"/>
</svg>
