<svg width="24" height="24" viewBox="0 0 24 24" fill="none" xmlns="http://www.w3.org/2000/svg">
<circle cx="12" cy="12" r="12" fill="#656565"/>
<path d="M11.875 8.20703C9.625 8.20703 7.83203 10.0352 7.83203 12.25C7.83203 14.5 9.625 16.293 11.875 16.293C14.0898 16.293 15.918 14.5 15.918 12.25C15.918 10.0352 14.0898 8.20703 11.875 8.20703ZM11.875 14.8867C10.4336 14.8867 9.23828 13.7266 9.23828 12.25C9.23828 10.8086 10.3984 9.64844 11.875 9.64844C13.3164 9.64844 14.4766 10.8086 14.4766 12.25C14.4766 13.7266 13.3164 14.8867 11.875 14.8867ZM17.0078 8.06641C17.0078 7.53906 16.5859 7.11719 16.0586 7.11719C15.5312 7.11719 15.1094 7.53906 15.1094 8.06641C15.1094 8.59375 15.5312 9.01562 16.0586 9.01562C16.5859 9.01562 17.0078 8.59375 17.0078 8.06641ZM19.6797 9.01562C19.6094 7.75 19.3281 6.625 18.4141 5.71094C17.5 4.79688 16.375 4.51562 15.1094 4.44531C13.8086 4.375 9.90625 4.375 8.60547 4.44531C7.33984 4.51562 6.25 4.79688 5.30078 5.71094C4.38672 6.625 4.10547 7.75 4.03516 9.01562C3.96484 10.3164 3.96484 14.2188 4.03516 15.5195C4.10547 16.7852 4.38672 17.875 5.30078 18.8242C6.25 19.7383 7.33984 20.0195 8.60547 20.0898C9.90625 20.1602 13.8086 20.1602 15.1094 20.0898C16.375 20.0195 17.5 19.7383 18.4141 18.8242C19.3281 17.875 19.6094 16.7852 19.6797 15.5195C19.75 14.2188 19.75 10.3164 19.6797 9.01562ZM17.9922 16.8906C17.7461 17.5938 17.1836 18.1211 16.5156 18.4023C15.4609 18.8242 13 18.7188 11.875 18.7188C10.7148 18.7188 8.25391 18.8242 7.23438 18.4023C6.53125 18.1211 6.00391 17.5938 5.72266 16.8906C5.30078 15.8711 5.40625 13.4102 5.40625 12.25C5.40625 11.125 5.30078 8.66406 5.72266 7.60938C6.00391 6.94141 6.53125 6.41406 7.23438 6.13281C8.25391 5.71094 10.7148 5.81641 11.875 5.81641C13 5.81641 15.4609 5.71094 16.5156 6.13281C17.1836 6.37891 17.7109 6.94141 17.9922 7.60938C18.4141 8.66406 18.3086 11.125 18.3086 12.25C18.3086 13.4102 18.4141 15.8711 17.9922 16.8906Z" fill="white"/>
</svg>
