<svg width="24" height="24" viewBox="0 0 24 24" fill="none" xmlns="http://www.w3.org/2000/svg">
<path d="M23.625 12C23.625 5.57812 18.4219 0.375 12 0.375C5.57812 0.375 0.375 5.57812 0.375 12C0.375 16.9688 3.42188 21.1406 7.73438 22.8281C7.64062 21.9375 7.54688 20.5312 7.78125 19.5C8.01562 18.6094 9.14062 13.7344 9.14062 13.7344C9.14062 13.7344 8.8125 13.0312 8.8125 12C8.8125 10.4062 9.75 9.1875 10.9219 9.1875C11.9062 9.1875 12.375 9.9375 12.375 10.8281C12.375 11.8125 11.7188 13.3125 11.3906 14.7188C11.1562 15.8438 12 16.7812 13.125 16.7812C15.1875 16.7812 16.7812 14.625 16.7812 11.4844C16.7812 8.67188 14.7656 6.75 11.9531 6.75C8.625 6.75 6.70312 9.23438 6.70312 11.7656C6.70312 12.7969 7.07812 13.875 7.54688 14.4375C7.64062 14.5312 7.64062 14.6719 7.64062 14.7656C7.54688 15.1406 7.3125 15.9375 7.3125 16.0781C7.26562 16.3125 7.125 16.3594 6.89062 16.2656C5.4375 15.5625 4.54688 13.4531 4.54688 11.7188C4.54688 8.0625 7.21875 4.6875 12.2344 4.6875C16.2656 4.6875 19.4062 7.59375 19.4062 11.4375C19.4062 15.4219 16.875 18.6562 13.3594 18.6562C12.1875 18.6562 11.0625 18.0469 10.6875 17.2969C10.6875 17.2969 10.125 19.5469 9.98438 20.0625C9.70312 21.0938 9 22.3594 8.53125 23.1094C9.60938 23.4844 10.7812 23.625 12 23.625C18.4219 23.625 23.625 18.4219 23.625 12Z" fill="#656565"/>
</svg>
