<svg width="42" height="42" viewBox="0 0 42 42" fill="none" xmlns="http://www.w3.org/2000/svg">
<path d="M34.8147 20.8304C34.8147 21.2857 34.654 21.7143 34.3326 22.0357L31.8951 24.4732C31.5737 24.7946 31.1451 24.9821 30.6897 24.9821C30.2344 24.9821 29.8058 24.7946 29.4844 24.4732L24.4219 19.4107V32.8571C24.4219 33.7946 23.6451 34.5714 22.7076 34.5714H19.279C18.3415 34.5714 17.5647 33.7946 17.5647 32.8571V19.4107L12.5022 24.4732C12.1808 24.7946 11.7522 24.9554 11.2969 24.9554C10.8415 24.9554 10.4129 24.7946 10.0915 24.4732L7.65402 22.0357C7.33259 21.7143 7.17188 21.2857 7.17188 20.8304C7.17188 20.375 7.33259 19.9464 7.65402 19.625L17.3504 9.92857L19.7879 7.49107C20.1094 7.16964 20.5379 7.00893 20.9933 7.00893C21.4487 7.00893 21.8772 7.16964 22.1987 7.49107L24.6362 9.92857L34.3326 19.625C34.654 19.9464 34.8147 20.375 34.8147 20.8304ZM41.5647 20.8571C41.5647 9.5 32.3504 0.285712 20.9933 0.285712C9.63616 0.285712 0.421875 9.5 0.421875 20.8571C0.421875 32.2143 9.63616 41.4286 20.9933 41.4286C32.3504 41.4286 41.5647 32.2143 41.5647 20.8571Z" fill="#656565"/>
</svg>
